<svg width="60" height="60" viewBox="0 0 60 60" fill="none" xmlns="http://www.w3.org/2000/svg">
<path d="M44.4001 7.8V54.6H40.8001V10.2C40.8001 9.54 40.2601 9 39.6001 9H20.4001C19.7401 9 19.2001 9.54 19.2001 10.2V54.6H15.6001V7.8C15.6001 6.474 16.6741 5.4 18.0001 5.4H42.0001C43.3261 5.4 44.4001 6.474 44.4001 7.8ZM21.6001 11.4H38.4001V54.6H21.6001V11.4ZM32.4001 30C32.4001 30.324 32.5261 30.624 32.7541 30.846C32.9761 31.074 33.2821 31.2 33.6001 31.2C33.9181 31.2 34.2241 31.074 34.4461 30.846C34.6741 30.624 34.8001 30.324 34.8001 30C34.8001 29.682 34.6741 29.376 34.4461 29.154C34.3921 29.094 34.3321 29.046 34.2661 29.004C34.2001 28.962 34.1341 28.92 34.0561 28.89C33.8373 28.8004 33.5968 28.7777 33.3651 28.8247C33.1334 28.8717 32.9207 28.9863 32.7541 29.154C32.5261 29.376 32.4001 29.682 32.4001 30Z" fill="#2364D0"/>
</svg>
