<svg width="60" height="60" viewBox="0 0 60 60" fill="none" xmlns="http://www.w3.org/2000/svg">
<path d="M53.6092 29.248L44.4664 22.248C44.1304 21.992 43.6504 21.93 43.2412 22.09C42.832 22.252 42.5715 22.608 42.5715 23V26H30.0001C29.3692 26 28.8572 26.4481 28.8572 27.0001V33.0001C28.8572 33.5521 29.3692 34.0001 30.0001 34.0001H42.5715V37.0001C42.5715 37.3921 42.8343 37.7481 43.2412 37.9101C43.3921 37.9701 43.5544 38.0001 43.7143 38.0001C43.9864 38.0001 44.2538 37.9161 44.4664 37.7522L53.6092 30.7521C53.8583 30.5621 54.0001 30.2882 54.0001 30.0002C54.0001 29.7122 53.8583 29.438 53.6092 29.248Z" fill="#2364D0"/>
<path d="M39.1428 36H30C28.1097 36 26.5714 34.654 26.5714 33V27C26.5714 25.346 28.1097 24 30 24H39.1428C39.7737 24 40.2857 23.552 40.2857 23V9C40.2857 7.34597 38.7474 6 36.8571 6H9.42857C7.53825 6 6 7.34597 6 9V51C6 52.654 7.53825 54 9.42857 54H36.8571C38.7474 54 40.2857 52.654 40.2857 51V37C40.2857 36.448 39.7737 36 39.1428 36Z" fill="#2364D0"/>
</svg>
