<svg width="80" height="80" viewBox="0 0 80 80" fill="none" xmlns="http://www.w3.org/2000/svg">
<g clip-path="url(#clip0_12_9238)">
<path d="M40.5 42.4286C43.608 42.4286 46.6462 41.5069 49.2304 39.7802C51.8146 38.0535 53.8287 35.5993 55.0181 32.7279C56.2075 29.8565 56.5187 26.6969 55.9123 23.6486C55.306 20.6003 53.8094 17.8003 51.6117 15.6026C49.414 13.4049 46.614 11.9083 43.5657 11.302C40.5174 10.6956 37.3578 11.0068 34.4864 12.1962C31.615 13.3856 29.1608 15.3997 27.4341 17.9839C25.7073 20.5681 24.7857 23.6063 24.7857 26.7143C24.7857 30.882 26.4413 34.879 29.3883 37.826C32.3353 40.773 36.3323 42.4286 40.5 42.4286ZM64.0714 81.7143C65.1134 81.7143 66.1126 81.3004 66.8493 80.5636C67.5861 79.8269 68 78.8276 68 77.7857C68 70.4922 65.1027 63.4975 59.9454 58.3403C54.7882 53.183 47.7935 50.2857 40.5 50.2857C33.2065 50.2857 26.2118 53.183 21.0546 58.3403C15.8973 63.4975 13 70.4922 13 77.7857C13 78.8276 13.4139 79.8269 14.1507 80.5636C14.8874 81.3004 15.8866 81.7143 16.9286 81.7143H64.0714Z" fill="#2364D0"/>
</g>
<rect x="1" y="1" width="78" height="78" rx="39" stroke="#0175FF" stroke-width="2"/>
<defs>
<clipPath id="clip0_12_9238">
<rect width="80" height="80" rx="40" fill="white"/>
</clipPath>
</defs>
</svg>
